<?xml version="1.0" encoding="iso-8859-1"?>
<!-- Generator: Adobe Illustrator 18.0.0, SVG Export Plug-In . SVG Version: 6.00 Build 0)  -->
<!DOCTYPE svg PUBLIC "-//W3C//DTD SVG 1.1//EN" "http://www.w3.org/Graphics/SVG/1.1/DTD/svg11.dtd">
<svg version="1.1" id="Capa_1" xmlns="http://www.w3.org/2000/svg" xmlns:xlink="http://www.w3.org/1999/xlink" x="0px" y="0px"
	 viewBox="0 0 189.847 138.108" style="enable-background:new 0 0 189.847 138.108;" xml:space="preserve">
<g>
	<path d="M168.869,86.549H21.016c-1.635,0-2.96,1.325-2.96,2.96v10.483c0,1.635,1.325,2.96,2.96,2.96h147.854
		c1.635,0,2.96-1.325,2.96-2.96V89.509C171.829,87.874,170.504,86.549,168.869,86.549z"/>
	<path d="M168.869,109.911H21.016c-1.635,0-2.96,1.325-2.96,2.96v22.277c0,1.635,1.325,2.96,2.96,2.96h147.854
		c1.635,0,2.96-1.325,2.96-2.96v-22.277C171.829,111.236,170.504,109.911,168.869,109.911z"/>
	<g>
		<path d="M174.44,77.933c-1.241,1.087-3.607,1.976-5.257,1.976H20.698c-1.65,0-4.039-0.862-5.309-1.915L1.387,66.381
			c-1.27-1.053-1.758-3.148-1.084-4.654l12.422-27.769c0.674-1.506,2.549-3.003,4.167-3.326l37.35-7.46
			c1.618-0.323,3.166-0.655,3.439-0.736c0.274-0.082,2.072-1.155,3.462-2.044L91.971,0.677c1.39-0.889,3.675-0.905,5.077-0.036
			l30.468,18.882c1.403,0.869,2.758,1.684,3.012,1.81s2.296,0.573,3.918,0.877l37.053,6.94c1.622,0.304,3.535,1.768,4.252,3.254
			l13.748,28.5c0.717,1.486,0.288,3.591-0.954,4.678L174.44,77.933z"/>
	</g>
	<path style="fill:#FFFFFF;" d="M117.557,38.602c-0.118-0.362-0.432-0.626-0.81-0.68l-14.443-2.056L95.817,22.86
		c-0.169-0.339-0.516-0.554-0.895-0.554c-0.001,0-0.002,0-0.002,0c-0.38,0.001-0.727,0.217-0.895,0.558L87.598,35.9l-14.435,2.119
		c-0.377,0.056-0.689,0.32-0.807,0.684c-0.116,0.362-0.017,0.76,0.258,1.025l10.47,10.109l-2.436,14.314
		c-0.064,0.375,0.09,0.754,0.398,0.978c0.174,0.126,0.38,0.19,0.587,0.19c0.159,0,0.319-0.038,0.466-0.115L95,58.418l12.932,6.729
		c0.146,0.076,0.304,0.113,0.462,0.113c0.008,0,0.016,0.001,0.02,0c0.553,0,1-0.447,1-1c0-0.129-0.023-0.252-0.068-0.364
		l-2.464-14.111l10.424-10.156C117.577,39.363,117.676,38.965,117.557,38.602z"/>
</g>
<g>
</g>
<g>
</g>
<g>
</g>
<g>
</g>
<g>
</g>
<g>
</g>
<g>
</g>
<g>
</g>
<g>
</g>
<g>
</g>
<g>
</g>
<g>
</g>
<g>
</g>
<g>
</g>
<g>
</g>
</svg>
