<?xml version="1.0" encoding="utf-8"?>
<!-- Generator: Adobe Illustrator 16.0.4, SVG Export Plug-In . SVG Version: 6.00 Build 0)  -->
<!DOCTYPE svg PUBLIC "-//W3C//DTD SVG 1.1//EN" "http://www.w3.org/Graphics/SVG/1.1/DTD/svg11.dtd">
<svg version="1.1" id="Capa_1" xmlns="http://www.w3.org/2000/svg" xmlns:xlink="http://www.w3.org/1999/xlink" x="0px" y="0px"
	 width="100px" height="100px" viewBox="0 0 100 100" enable-background="new 0 0 100 100" xml:space="preserve">
<g>
	<path fill="#020202" d="M86.116,44.285l-11.421-11.42v-7.456c0-1.136-0.92-2.056-2.055-2.056c-1.138,0-2.058,0.92-2.058,2.056
		v3.345L63.04,21.21c-0.806-0.803-2.104-0.803-2.906,0l-9.049,9.048l-3.612-3.612c-0.802-0.802-2.105-0.802-2.907,0L16.891,54.322
		c-0.803,0.804-0.803,2.104,0,2.906c0.802,0.804,2.104,0.804,2.907,0l26.223-26.223l26.222,26.223
		c0.401,0.4,0.929,0.604,1.455,0.604c0.524,0,1.051-0.201,1.452-0.604c0.803-0.803,0.803-2.104,0-2.906L61.333,40.506v-9.113
		c0-1.135-0.921-2.056-2.056-2.056s-2.057,0.921-2.057,2.056v5.002l-3.229-3.23l7.596-7.594l21.622,21.622
		c0.4,0.4,0.928,0.602,1.453,0.602s1.052-0.201,1.454-0.602C86.918,46.39,86.918,45.089,86.116,44.285z"/>
	<path fill="#020202" d="M69.27,56.684L47.474,34.886c-0.386-0.385-0.909-0.602-1.453-0.602c-0.545,0-1.068,0.217-1.454,0.602
		L22.771,56.684c-0.291,0.289-0.487,0.66-0.565,1.063c-0.061,0.313-0.091,0.631-0.091,0.942v10.638c0,2.739,2.229,4.969,4.969,4.969
		h10.637c1.377,0,2.706-0.582,3.645-1.597c0.854-0.924,1.324-2.12,1.324-3.373v-7.812c0-1.896,1.453-3.479,3.33-3.658
		c1.877,0.179,3.331,1.763,3.331,3.658v7.812c0,1.253,0.47,2.449,1.324,3.373c0.938,1.014,2.267,1.596,3.646,1.596h10.639
		c2.74,0,4.969-2.229,4.969-4.969V58.689c0-0.312-0.029-0.631-0.091-0.943C69.756,57.344,69.561,56.973,69.27,56.684z"/>
</g>
</svg>
