<?xml version="1.0" encoding="iso-8859-1"?>
<!-- Generator: Adobe Illustrator 16.0.0, SVG Export Plug-In . SVG Version: 6.00 Build 0)  -->
<!DOCTYPE svg PUBLIC "-//W3C//DTD SVG 1.1//EN" "http://www.w3.org/Graphics/SVG/1.1/DTD/svg11.dtd">
<svg version="1.1" id="Layer_2" xmlns="http://www.w3.org/2000/svg" xmlns:xlink="http://www.w3.org/1999/xlink" x="0px" y="0px"
	 width="512px" height="512px" viewBox="0 0 512 512" style="enable-background:new 0 0 512 512;" xml:space="preserve">
<g>
	<path d="M264.26,80.845c0.389,9.688,0.778,19.376,1.168,29.064c-7.542,0-11.313,0-18.855,0c0.389-9.688,0.779-19.376,1.167-29.064
		c-15.295,0-30.589,0-45.884,0c-30.747,116.771-61.499,233.539-92.245,350.311c41.352,0,82.704,0,124.055,0
		c0.389-9.689,0.778-19.377,1.168-29.064c14.111,0,28.221,0,42.332,0c0.391,9.688,0.78,19.375,1.168,29.064
		c41.352,0,82.703,0,124.055,0c-30.747-116.771-61.498-233.54-92.245-350.311C294.85,80.845,279.556,80.845,264.26,80.845z
		 M244.823,153.426c7.451,0,14.902-0.004,22.354-0.002c1.082,26.939,2.163,53.88,3.247,80.818c-9.616,0-19.231,0-28.848,0
		C242.662,207.304,243.742,180.364,244.823,153.426z M236.582,358.574c1.081-26.938,2.165-53.877,3.247-80.815
		c10.781,0,21.562-0.002,32.342-0.002c1.083,26.938,2.166,53.879,3.247,80.817C262.473,358.574,249.527,358.574,236.582,358.574z"/>
	<path d="M340.221,80.845c-6.248,0-9.373,0-15.621,0c38.961,116.771,77.913,233.541,116.876,350.311c14.077,0,28.155,0,42.232,0
		C435.881,314.384,388.051,197.615,340.221,80.845z"/>
	<path d="M171.779,80.845c-47.83,116.771-95.661,233.539-143.487,350.311c14.078,0,28.155,0,42.233,0
		c38.958-116.77,77.915-233.54,116.875-350.311C181.152,80.845,178.027,80.845,171.779,80.845z"/>
</g>
</svg>
